<?xml version="1.0" encoding="UTF-8"?>
<svg id="Isolation_Mode" xmlns="http://www.w3.org/2000/svg" version="1.1" viewBox="0 0 120.2 53.7">
  <!-- Generator: Adobe Illustrator 30.1.0, SVG Export Plug-In . SVG Version: 2.1.1 Build 136)  -->
  <defs>
    <style>
      .st0 {
        fill-rule: evenodd;
      }

      .st0, .st1 {
        fill: #fff;
      }

      .st2 {
        fill: #231f20;
      }
    </style>
  </defs>
  <g>
    <g>
      <path class="st0" d="M37.9,16.3c0,3.1,0,6.2,0,9.3v.9c-2-2.4-4.7-2.5-7.2-3-.7-.1-1.4-.2-2.1-.4-1.3-.3-2.3-2-2.1-3.4,0-.6.4-.9.9-1,.5-.1.8.2,1,.6.3.6.5,1.3.7,1.9,0,.2.2.5.3.8,1.9-.8,3.8-1.6,5.8-2.5-.4-1.1-.8-2.1-1.3-3.1h4Z"/>
      <path class="st0" d="M22.6,27.2c1.7,1.8,4,1.8,6.2,2.4.9.2,1.9.5,2.8.7.7.2,1.2.6,1.5,1.2.3.7.6,1.4.8,2.2.2.8,0,1.4-.7,1.6-.6.3-1.1.2-1.4-.5-.5-1.1-.8-2.1-1.2-3.2,0-.2-.2-.5-.3-.8-2,.8-3.9,1.6-5.8,2.5.5,1.4,1.1,2.7,1.6,4.1h-3.4v-10.2Z"/>
    </g>
    <g>
      <path class="st1" d="M50,24l.7-1.5c.7.5,1.8.9,2.8.9s1.6-.4,1.6-.9c0-1.6-4.9-.5-4.9-3.6s1.2-2.6,3.5-2.6,2.1.3,2.9.7l-.6,1.5c-.8-.4-1.6-.7-2.3-.7-1.2,0-1.6.4-1.6,1,0,1.5,4.9.5,4.9,3.6s-1.2,2.6-3.6,2.6-2.7-.4-3.4-1Z"/>
      <path class="st1" d="M58,16.4c0-.6.5-1,1.2-1s1.2.4,1.2,1-.5,1.1-1.2,1.1-1.2-.5-1.2-1ZM58.2,18.4h1.9v6.5h-1.9v-6.5Z"/>
      <path class="st1" d="M68.5,18.4v5.4c0,2.4-1.3,3.5-3.6,3.5s-2.4-.3-3.2-.9l.7-1.3c.6.4,1.5.7,2.3.7,1.3,0,1.9-.6,1.9-1.8v-.3c-.5.5-1.2.8-2,.8-1.8,0-3.2-1.2-3.2-3.1s1.4-3.1,3.2-3.1,1.6.3,2.1.9v-.8h1.8ZM66.6,21.4c0-.9-.7-1.6-1.7-1.6s-1.7.6-1.7,1.6.7,1.6,1.7,1.6,1.7-.6,1.7-1.6Z"/>
      <path class="st1" d="M76.8,21.1v3.7h-1.9v-3.4c0-1-.5-1.5-1.3-1.5s-1.5.6-1.5,1.7v3.2h-1.9v-8.9h1.9v3.1c.5-.5,1.2-.8,2.1-.8,1.5,0,2.7.9,2.7,2.9Z"/>
      <path class="st1" d="M82.7,24.5c-.4.3-.9.4-1.5.4-1.5,0-2.4-.8-2.4-2.3v-2.7h-1v-1.4h1v-1.6h1.9v1.6h1.6v1.4h-1.6v2.6c0,.6.3.9.8.9s.6,0,.8-.2l.5,1.3Z"/>
      <path class="st1" d="M89.8,22.1h-4.9c.2.8.9,1.3,1.8,1.3s1.2-.2,1.6-.6l1,1.1c-.6.7-1.5,1-2.7,1-2.2,0-3.7-1.4-3.7-3.3s1.5-3.3,3.4-3.3,3.4,1.3,3.4,3.3,0,.3,0,.5ZM84.9,21.1h3.2c-.1-.8-.7-1.3-1.6-1.3s-1.5.5-1.6,1.3Z"/>
      <path class="st1" d="M97.7,15.9v8.9h-1.8v-.7c-.5.6-1.2.8-2,.8-1.8,0-3.2-1.3-3.2-3.3s1.4-3.3,3.2-3.3,1.5.3,1.9.8v-3.1h1.9ZM95.8,21.6c0-1.1-.7-1.8-1.6-1.8s-1.7.7-1.7,1.8.7,1.8,1.7,1.8,1.6-.7,1.6-1.8Z"/>
    </g>
    <g>
      <path class="st1" d="M50.7,27.4h3.8c2.7,0,4.6,1.7,4.6,4.2s-1.9,4.2-4.6,4.2h-3.8v-8.4ZM54.4,34.2c1.7,0,2.8-1,2.8-2.6s-1.1-2.6-2.8-2.6h-1.8v5.2h1.8Z"/>
      <path class="st1" d="M66.8,33.1h-4.9c.2.8.9,1.3,1.8,1.3s1.2-.2,1.6-.6l1,1.1c-.6.7-1.5,1-2.7,1-2.2,0-3.7-1.4-3.7-3.3s1.5-3.3,3.4-3.3,3.4,1.3,3.4,3.3,0,.3,0,.5ZM61.8,32.1h3.2c-.1-.8-.7-1.3-1.6-1.3s-1.5.5-1.6,1.3Z"/>
      <path class="st1" d="M67.4,35.2l.6-1.3c.6.4,1.5.6,2.2.6s1.2-.2,1.2-.6c0-1.1-3.9,0-3.9-2.6s1.1-2.1,3-2.1,1.9.2,2.5.6l-.6,1.3c-.6-.4-1.3-.5-1.9-.5-.8,0-1.2.3-1.2.6,0,1.1,3.9,0,3.9,2.6s-1.1,2.1-3,2.1-2.2-.3-2.8-.7Z"/>
      <path class="st1" d="M74.2,27.4c0-.6.5-1,1.2-1s1.2.4,1.2,1-.5,1.1-1.2,1.1-1.2-.5-1.2-1ZM74.4,29.4h1.9v6.5h-1.9v-6.5Z"/>
      <path class="st1" d="M84.7,29.4v5.4c0,2.4-1.3,3.5-3.6,3.5s-2.4-.3-3.2-.9l.7-1.3c.6.4,1.5.7,2.3.7,1.3,0,1.9-.6,1.9-1.8v-.3c-.5.5-1.2.8-2,.8-1.8,0-3.2-1.2-3.2-3.1s1.4-3.1,3.2-3.1,1.6.3,2.1.9v-.8h1.8ZM82.8,32.4c0-.9-.7-1.6-1.7-1.6s-1.7.6-1.7,1.6.7,1.6,1.7,1.6,1.7-.6,1.7-1.6Z"/>
      <path class="st1" d="M93,32.1v3.7h-1.9v-3.4c0-1-.5-1.5-1.3-1.5s-1.5.6-1.5,1.7v3.2h-1.9v-6.5h1.8v.8c.5-.6,1.3-.9,2.1-.9,1.5,0,2.7.9,2.7,2.9Z"/>
    </g>
  </g>
</svg>