<?xml version="1.0" encoding="UTF-8"?>
<svg id="Isolation_Mode" xmlns="http://www.w3.org/2000/svg" version="1.1" viewBox="0 0 120.2 53.7">
  <!-- Generator: Adobe Illustrator 30.1.0, SVG Export Plug-In . SVG Version: 2.1.1 Build 136)  -->
  <defs>
    <style>
      .st0 {
        fill-rule: evenodd;
      }

      .st0, .st1 {
        fill: #fff;
      }

      .st2 {
        fill: #231f20;
      }
    </style>
  </defs>
  <rect class="st2" y="-.5" width="120.2" height="53.7"/>
  <g>
    <g>
      <path class="st1" d="M43.4,26.7c0,1.1-.5,1.8-1.3,1.8s-.7-.2-.9-.5c-.2.4-.6.5-1.1.5-.8,0-1.4-.6-1.4-1.6s.6-1.6,1.4-1.6.7.1,1,.4v-.4h.9v2c0,.3.1.4.3.4.3,0,.5-.3.5-1.1,0-1.3-.9-2.2-2.3-2.2s-2.3,1-2.3,2.3.9,2.3,2.3,2.3.8,0,1.2-.3l.2.6c-.4.2-.9.3-1.4.3-1.8,0-3-1.2-3-2.9s1.2-2.9,3-2.9,3,1.2,3,2.7ZM41.1,26.9c0-.5-.3-.9-.8-.9s-.8.3-.8.9.3.9.8.9.8-.3.8-.9Z"/>
      <path class="st1" d="M45.1,28.4l.3-.8c.4.3.9.5,1.4.5s.8-.2.8-.5c0-.8-2.6-.3-2.6-1.9s.6-1.4,1.9-1.4,1.1.1,1.5.4l-.3.8c-.4-.2-.8-.3-1.2-.3-.6,0-.8.2-.8.5,0,.8,2.6.3,2.6,1.9s-.6,1.4-1.9,1.4-1.4-.2-1.8-.5Z"/>
      <path class="st1" d="M50.7,24.4h1v4.4h-1v-4.4Z"/>
      <path class="st1" d="M56.9,26.6h.9v1.8c-.5.4-1.1.6-1.8.6-1.4,0-2.4-.9-2.4-2.3s1-2.3,2.4-2.3,1.4.3,1.8.8l-.7.6c-.3-.3-.7-.5-1.1-.5-.9,0-1.4.6-1.4,1.4s.6,1.4,1.4,1.4.5,0,.8-.2v-1.3Z"/>
      <path class="st1" d="M64.1,24.4v4.4h-1v-1.8h-2v1.8h-1v-4.4h1v1.7h2v-1.7h1Z"/>
      <path class="st1" d="M67.3,25.3h-1.4v-.8h3.8v.8h-1.4v3.6h-1v-3.6Z"/>
      <path class="st1" d="M74.9,28v.8h-3.4v-4.4h3.3v.8h-2.3v1h2v.8h-2v1h2.4Z"/>
      <path class="st1" d="M77,24.4h2c1.4,0,2.4.9,2.4,2.2s-1,2.2-2.4,2.2h-2v-4.4ZM78.9,28c.9,0,1.4-.5,1.4-1.4s-.6-1.4-1.4-1.4h-.9v2.7h.9Z"/>
      <path class="st1" d="M86.8,28v.8h-3.4v-4.4h3.3v.8h-2.3v1h2v.8h-2v1h2.4Z"/>
      <path class="st1" d="M88.6,28.4l.3-.8c.4.3.9.5,1.4.5s.8-.2.8-.5c0-.8-2.6-.3-2.6-1.9s.6-1.4,1.9-1.4,1.1.1,1.5.4l-.3.8c-.4-.2-.8-.3-1.2-.3-.6,0-.8.2-.8.5,0,.8,2.6.3,2.6,1.9s-.6,1.4-1.9,1.4-1.4-.2-1.8-.5Z"/>
      <path class="st1" d="M94.2,24.4h1v4.4h-1v-4.4Z"/>
      <path class="st1" d="M100.4,26.6h.9v1.8c-.5.4-1.1.6-1.8.6-1.4,0-2.4-.9-2.4-2.3s1-2.3,2.4-2.3,1.4.3,1.8.8l-.7.6c-.3-.3-.7-.5-1.1-.5-.9,0-1.4.6-1.4,1.4s.6,1.4,1.4,1.4.5,0,.8-.2v-1.3Z"/>
      <path class="st1" d="M107.6,24.4v4.4h-.8l-2.2-2.7v2.7h-1v-4.4h.8l2.2,2.7v-2.7h1Z"/>
    </g>
    <g>
      <path class="st0" d="M27.5,18.3c0,2.5,0,5,0,7.5v.7c-1.6-1.9-3.8-2-5.9-2.4-.6-.1-1.1-.2-1.7-.3-1-.3-1.8-1.6-1.7-2.8,0-.5.3-.7.7-.8.4-.1.6.1.8.5.2.5.4,1,.6,1.5,0,.2.2.4.3.7,1.6-.7,3.1-1.3,4.7-2-.4-.9-.7-1.7-1-2.5h3.2Z"/>
      <path class="st0" d="M15.1,27.1c1.4,1.4,3.3,1.5,5,1.9.8.2,1.5.4,2.3.5.5.1.9.5,1.2,1,.3.6.5,1.2.7,1.8.2.6,0,1.1-.6,1.3-.5.2-.9.1-1.1-.4-.4-.9-.7-1.7-1-2.6,0-.2-.1-.4-.2-.6-1.6.7-3.1,1.3-4.7,2,.4,1.1.9,2.2,1.3,3.3h-2.8v-8.2Z"/>
    </g>
  </g>
</svg>